<?xml version="1.0" encoding="UTF-8" standalone="no"?>
<!-- Created with Inkscape (http://www.inkscape.org/) -->

<svg
   version="1.1"
   id="svg1"
   width="800"
   height="800"
   viewBox="0 0 800 800"
   xmlns="http://www.w3.org/2000/svg"
   xmlns:svg="http://www.w3.org/2000/svg">
  <defs
     id="defs1" />
  <g
     id="g7"
     style="display:inline"
     transform="translate(-10,2.9069223)">
    <rect
       style="fill:#fbefd9;fill-opacity:1;fill-rule:evenodd;stroke:#000000;stroke-width:0;stroke-linecap:round;stroke-linejoin:round;paint-order:fill markers stroke"
       id="rect7"
       width="800"
       height="800"
       x="0"
       y="0"
       transform="translate(10,-2.9069223)" />
    <circle
       style="display:inline;fill:#b02d01;fill-opacity:1;fill-rule:evenodd;stroke:#000000;stroke-width:0;stroke-linecap:round;stroke-linejoin:round;paint-order:fill markers stroke"
       id="path1"
       cx="186.85783"
       cy="177.3166"
       r="64.516129" />
    <path
       style="display:inline;fill:#dfa077;fill-opacity:1;fill-rule:evenodd;stroke:#000000;stroke-width:0;stroke-linecap:round;stroke-linejoin:round;paint-order:fill markers stroke"
       d="M 755,97 V 742 C 755,742 466.79651,574.67528 465.47192,431.08005 463.01833,165.09235 655.0759,87.137044 755,97 Z"
       id="path2" />
    <path
       style="display:inline;fill:#cfae83;fill-opacity:1;fill-rule:evenodd;stroke:#000000;stroke-width:0;stroke-linecap:round;stroke-linejoin:round;paint-order:fill markers stroke"
       d="M 65,342 V 742 H 340 V 430.12425 C 321.63874,289.5186 130.2799,278.22121 65,342 Z"
       id="path4" />
    <path
       style="display:inline;fill:#98a28a;fill-opacity:1;fill-rule:evenodd;stroke:#000000;stroke-width:0;stroke-linecap:round;stroke-linejoin:round;paint-order:fill markers stroke"
       d="M 755,367 V 742 H 290 C 255.01273,501.2175 482.69079,364.6927 755,367 Z"
       id="path3" />
    <path
       style="display:inline;fill:#505a3f;fill-opacity:1;fill-rule:evenodd;stroke:#000000;stroke-width:0;stroke-linecap:round;stroke-linejoin:round;paint-order:fill markers stroke"
       d="M 755,542 H 520 c -78.24447,0 -74.18162,84.64515 -70,130 h 305 z"
       id="path5" />
    <path
       style="display:inline;fill:#b02d01;fill-opacity:1;fill-rule:evenodd;stroke:#000000;stroke-width:0;stroke-linecap:round;stroke-linejoin:round;paint-order:fill markers stroke"
       d="M 65,542 V 742 H 600 C 466.11103,644.72765 350.81736,522.19904 65,542 Z"
       id="path6" />
    <path
       style="display:inline;fill:#dfa367;fill-opacity:1;fill-rule:evenodd;stroke:#000000;stroke-width:0;stroke-linecap:round;stroke-linejoin:round;paint-order:fill markers stroke"
       d="M 755,622 V 742 H 360 C 432.20542,682.0178 556.53726,605.41117 755,622 Z"
       id="path7" />
  </g>
</svg>
