<?xml version="1.0" encoding="UTF-8"?>
<svg id="Layer_1" data-name="Layer 1" xmlns="http://www.w3.org/2000/svg" xmlns:xlink="http://www.w3.org/1999/xlink" viewBox="0 0 1080 1350">
  <defs>
    <style>
      .cls-1 {
        fill: #287194;
      }

      .cls-2 {
        fill: #dd6d3d;
      }

      .cls-3 {
        fill: #246058;
      }

      .cls-4 {
        fill: #8cb2c5;
      }

      .cls-5 {
        fill: #09141a;
      }

      .cls-6 {
        fill: #a81b24;
      }

      .cls-7 {
        fill: #d7ffda;
      }

      .cls-8 {
        clip-path: url(#clippath);
      }

      .cls-9 {
        fill: #d44535;
      }

      .cls-10 {
        fill: #eeab50;
      }

      .cls-11 {
        fill: none;
      }

      .cls-12 {
        fill: #1a5d7a;
      }

      .cls-13 {
        fill: #e68939;
      }

      .cls-14 {
        fill: #941f28;
      }

      .cls-15 {
        fill: #124549;
      }

      .cls-16 {
        fill: #64967b;
      }

      .cls-17 {
        fill: #73a2bc;
      }
    </style>
    <clipPath id="clippath">
      <rect class="cls-11" width="1080" height="1350"/>
    </clipPath>
  </defs>
  <g class="cls-8">
    <rect class="cls-7" width="1080" height="1350"/>
    <path class="cls-4" d="m191.48-16.13c-3.88,32.93,16.52,67.23,47.31,79.54,27.14,10.85,57.65,5.32,86.86,6.25s62.82,12.89,70.86,40.99c6.48,22.66-6.67,46.3-22.37,63.87-11.6,12.98-24.97,24.57-34.27,39.29-9.3,14.71-13.99,33.9-6.41,49.57,12.26,25.35,46.82,27.73,74.96,26.5,59.49-2.59,118.98-5.17,178.47-7.76,28.75-1.25,60.14-1.72,82.99,15.77,37.37,28.59,31.1,86.47,52.48,128.39,19.88,38.98,62.45,61.02,104.47,73.25,42.01,12.23,86.3,17.33,126.37,34.9,39.87,17.49,78.3,47.7,121.48,42.08,38.47-5.01,67.97-38.47,81.84-74.71,13.87-36.24,15.6-75.76,21.1-114.16,9.8-68.45,31.9-134.65,42.38-203s8.15-142.13-27.53-201.37c-33.27-55.24-91.33-90.94-150.78-115.94-126.04-53-266.52-66.67-402.47-52.15-92.23,9.85-182.76,32.33-270.33,62.58-38.79,13.4-76.4,29.39-115.75,40.48-31.4,8.85-57.58,31.11-61.65,65.63Z"/>
    <path class="cls-17" d="m534.37-183.8c-28.44,30.82-43.26,78.25-24.27,115.64,10.81,21.3,30.59,36.28,47.77,52.88s33.05,37.81,31.97,61.67c-1.46,32.44-32.09,54.24-54.55,77.69-4.71,4.91-9.44,10.97-8.66,17.73.89,7.64,8.39,12.61,15.43,15.71,34.84,15.36,74.62,11.55,112.64,13.76s80.26,14.05,98.29,47.59c15.19,28.25,8.79,64.33,23.86,92.64,16.45,30.88,54.73,44.3,89.7,43.25s68.41-13.53,102.38-21.91c33.97-8.38,71.23-12.38,102.81,2.68,24.1,11.49,41.89,32.64,62.45,49.67,20.56,17.03,47.85,30.61,73.33,22.65-23.8-58.07,5.59-123.89,40.88-175.8s78.58-102.91,85.75-165.26c6.38-55.54-18.21-111.26-55.16-153.22-36.95-41.96-85.31-72.07-134.16-99.26-54.87-30.54-112.18-58.49-173.78-70.66-83.58-16.51-168.76-3.11-252.86.65-35.53,1.59-64.64-2.41-96.27,14.11s-63.09,31.27-87.56,57.8Z"/>
    <path class="cls-1" d="m767.21-30.3c-3.36,20.7-5.22,41.92-13.04,61.38-2.71,6.74-6.31,13.3-10.7,19.18-14.53,19.46-2.53,47.51,21.58,50.46.21.03.42.05.63.08,21.07,2.47,42.69,1.14,63.19,6.6s40.63,20.13,43.85,41.09c3.05,19.9-9.69,40.4-4.08,59.73,3.17,10.93,10.93,18.36,20.87,23.43,22.05,11.25,48.78,7.12,67.26-9.36,22.37-19.96,46.88-37.48,75.94-42.77,31.18-5.68,62.87,3.67,94.42,6.66,53.83,5.11,109.72-9.24,152.98-41.68,43.26-32.44,73.01-83.07,77.86-136.93,7.3-80.97-41.45-159.39-107.6-206.65-66.15-47.26-147.38-68.15-227.55-81.65-34.98-5.89-71.8-10.41-105.2,1.56-94.05,33.7-136.18,161.03-150.42,248.86Z"/>
    <path class="cls-12" d="m900.35-29.35c1.73,39.61,46.06,71.23,84.08,59.96-6.27,11.64-12.63,23.54-14.91,36.56s.19,27.61,9.57,36.92c9.18,9.11,22.88,11.53,35.66,13.51,25.53,3.95,51.06,7.9,76.58,11.86,19.63,3.04,39.89,6.05,59.14,1.16,46.05-11.7,70.38-68.58,57.13-114.22s-55.03-78.5-100.05-93.7c-52.35-17.67-211.56-51.55-207.21,47.95Z"/>
    <path class="cls-10" d="m953.77,631.75c-34.1-23.89-61.41-62.27-102.62-68.24-48.72-7.06-98,35.27-144.21,18.31-38.41-14.1-51.96-60.66-79.61-90.81-24.78-27.02-65.17-40.77-99.82-28.79-34.65,11.98-58.59,52.35-47.42,87.27,18.18,56.86,107.54,71.14,116.09,130.23,4.26,29.44-15.33,57.66-39.36,75.18-24.03,17.52-52.65,27.54-78.3,42.59-21.28,12.49-42.74,35.29-34.8,58.65,5.72,16.82,24,25.16,39.99,32.9,44.08,21.35,88.31,62.53,80.03,110.81-6.52,38.05-42.9,62.79-77.13,80.66-73.8,38.52-158.98,71.92-197.23,145.86-31.52,60.93-21.48,137.91,14.65,196.23,36.13,58.32,95.06,99.62,158.06,126.77,110.19,47.47,237.11,54.96,352.12,20.78,115.01-34.18,217.24-109.78,283.61-209.74,98.35-148.11,113.83-334.39,126.01-511.76,2.51-36.57,16.62-257.18-53.85-243.43-15.39,3-33.01,25.75-47.68,33.46-17.27,9.08-36.15,15.06-55.45,17.86-39.07,5.66-80.47-1.91-113.1-24.76Z"/>
    <path class="cls-13" d="m1112.92,767.86c-59.41,20.86-125.73,15.27-185.37-4.94s-113.59-54.21-165.23-90.24c-19.22-13.4-39.21-27.55-62.42-30.78-23.21-3.24-50.41,8.65-55.75,31.46-5.1,21.78,10.52,42.21,20.72,62.12s11.6,50.57-9.29,58.57c-9.81,3.76-21.56.74-30.76,5.83-16.98,9.38-9.22,38.06,8.27,46.47s38.04,4,57.32,1.85c19.28-2.15,41.98-.3,53.15,15.57,15.76,22.41-3.58,53.09-25.46,69.59-21.88,16.49-49.35,31.37-55.32,58.12-4.98,22.32,7.34,45.9,1.93,68.11-5.45,22.39-26.87,36.56-46.58,48.5-39.57,23.96-79.14,47.92-118.71,71.88-20.07,12.15-18.87,41.47,1.98,52.23.19.1.38.2.58.3,19.18,10.06,35.39,28.56,36.58,50.18.95,17.25-7.49,33.49-11.02,50.4-8.26,39.56,10.71,79.56,32.78,113.41,75.51,115.89,206.85,205.17,344.61,192.73,60.72-5.48,118.04-29.81,172.91-56.39,52.46-25.41,104.37-53.58,147.45-92.84,110.9-101.07,147.35-258.96,167.37-407.67,15.8-117.36,24.26-240.74-19.89-350.62-11.69-29.09-27.52-57.47-51.83-77.26-17.7-14.4-42.81-25.47-66.11-23.27-27.87,2.64-23.63,24.96-35.33,47.15-22.13,41.98-62.07,73.91-106.57,89.53Z"/>
    <path class="cls-2" d="m1224.72,766.47c-27.77,51.2-78.72,89.23-135.71,101.3-52.73,11.16-107.61.9-161.3,5.58-53.7,4.68-112.7,31.84-125.92,84.09-13.5,53.34,24.72,116.85-7.49,161.46-27.7,38.37-91.53,35.93-117.71,75.36-12.52,18.86-13.17,42.93-13.4,65.57-1.2,119.4.92,249.09,74.76,342.93,43.37,55.11,107.76,91.21,175.51,109.34,67.75,18.12,138.99,19.38,208.91,14.02,59.65-4.57,120.7-14.49,171.9-45.44,55.48-33.53,94.29-88.66,126.23-145.07,57.46-101.51,98.37-214.1,105.24-330.54,9.79-165.75-48.95-327-106.8-482.63-14.08-37.89-29.07-77.19-58.41-105-25.43-24.1-96.37-51.31-112.96-3.52-7.44,21.44,2.46,49.77.67,72.34-2.22,27.97-10.12,55.54-23.5,80.23Z"/>
    <path class="cls-9" d="m1503.39,655.4c18.06,30.24,16.24,69.43,2.13,101.71-14.11,32.28-39.07,58.6-65.85,81.49-86.62,74.01-198,118.52-311.77,124.6-42.19,2.25-85.31-.51-125.91,11.18-40.6,11.69-79.52,42.49-84.76,84.42-4.13,33.04,12.81,68.57-1.2,98.77-19.05,41.07-79.05,41.66-110.98,73.75-31.64,31.8-26.83,83.53-19.79,127.84,9.9,62.35,20.03,125.51,45.58,183.23,25.55,57.72,68.74,110.36,127.45,133.56,45.02,17.78,95.11,17.01,143.29,12.29,176.49-17.27,347.76-84.98,488.34-193.07,39.04-30.02,76.57-64.1,99.21-107.83,27.31-52.74,30.46-114.29,31.63-173.67,2.71-137.67-2.25-275.49-14.85-412.62-4.32-47.05-11.37-97.97-44.9-131.26-22.89-22.72-54.84-33.58-86.14-41.38-25.03-6.24-54.73-9.9-73.74,7.52-15.45,14.15-18.06,38.32-11.88,58.34,6.18,20.01,19.56,36.88,32.65,53.22"/>
    <path class="cls-6" d="m1295.28,788.79c21.38,29.04,23.05,69.22,11.66,103.44-11.39,34.22-34.24,63.41-58.86,89.75-40.47,43.29-86.92,80.99-137.62,111.66-36.97,22.37-78.7,43.61-97.13,82.69-10.36,21.97-12.96,48.93-31.15,65.02-29.35,25.95-85.62,11.11-105.05,45.13-9.25,16.2-4.89,36.8,2.84,53.78s18.63,32.82,22.47,51.07c8.94,42.48-22.3,86.13-12.2,128.35,6.63,27.72,29.98,48.46,54.86,62.36,65.75,36.74,148.39,36.83,218.43,9.13,70.04-27.7,128.02-80.93,170.6-143.05s70.77-133.01,93.06-204.96c21.77-70.28,38.33-144.84,24.35-217.06-17.95-92.71-89.29-173.11-179.21-201.96"/>
    <path class="cls-14" d="m1045.27,1251.24c-9.13,5.84-15.26,18.02-10.53,27.77,1.12,2.3,2.78,4.39,3.3,6.9,1.1,5.27-3.37,10.28-8.37,12.26s-10.55,1.92-15.83,2.98c-23.85,4.78-37.51,32.47-34.59,56.62s18.08,44.94,34.02,63.31c13.9,16.02,29.56,31.65,49.53,38.78,30.21,10.79,63.76.02,92.55-14.14,29.33-14.42,57.93-33.49,74.17-61.86,24-41.91,15.71-96.06-7.5-138.41-15.26-27.85-47.21-68.86-83.91-62.42-29.68,5.21-15.58,36.54-34.16,51.54-16.23,13.1-41.2,5.5-58.7,16.68Z"/>
    <path class="cls-16" d="m-40,112c24.21-3.28,77.47-.85,184,4,112.28,5.11,137.58,11.14,145,28,19.56,44.47-104.96,119.66-87,158,21.05,44.93,208.93-22.38,237,30,21.48,40.08-77.66,99.73-60,176,15.73,67.93,106.61,73.47,109,128,2.49,56.82-95.41,67.92-111,143-16.48,79.38,81.94,120.02,66,201-8.67,44.05-40.08,43.64-128,135-71.86,74.67-110.66,114.99-126,175-25.52,99.85,41.65,145.65,13,201-41.1,79.42-237.04,96.54-379,26-190.21-94.52-238.89-324.21-263-438-55.04-259.74,24.84-467.92,62-561C-343.34,431.19-225.95,137.17-40,112Z"/>
    <path class="cls-3" d="m-226,108c32.34,37.73,84.54,85.67,154,92,77.07,7.02,122.18-42.04,160-17,49.04,32.47-2.43,131.09,52,181,51.97,47.66,142.67-2.13,166,37,23.97,40.19-64.55,104.77-40,169,17.6,46.04,72.44,37.33,85,79,17.47,57.94-82.05,96.26-85,188-2.23,69.48,53.77,81.17,47,139-9.7,82.83-127.11,80.23-180,188-44.31,90.29,10.64,148.06-32,210-50.92,73.95-187.07,103.45-276,60-152.79-74.64-148.76-355.97-147-479,3.26-227.55,71.48-306.04,92-621,6.23-95.54,5.55-174.31,4-226Z"/>
    <path class="cls-15" d="m-194,253c92.79-32.6,212.66,47.61,252,133,23.05,50.03,9.62,82.65,47,126,44.13,51.18,92.79,40.43,107,79,16.12,43.76-42.71,67.97-60,152-18.78,91.27,39.05,119,15,197-20.67,67.04-67.22,58.98-102,137-37.51,84.15,2.1,126.15-30,177-49.62,78.6-227.08,109.38-295,41-101.43-102.11,135.3-330.8,27-599-32.9-81.48-80.37-123.8-79-220,1.04-73.1,30.49-192.25,118-223Z"/>
    <path class="cls-5" d="m-162,433c54.26-40.91,234.89,56.77,242,158,4.41,62.83-60.97,85.06-58,165,2.69,72.47,57.66,87.67,58,154,.41,79.42-77.84,166.04-124,156-40.46-8.8-37.28-87.7-88-359-38.61-206.53-57.71-253.11-30-274Z"/>
  </g>
</svg>